<svg width="32" height="32" viewBox="0 0 32 32" fill="none" xmlns="http://www.w3.org/2000/svg">
<path d="M14.2388 0C12.7364 2.15616 14.2286 7.85675 14.5552 10.4416L15.8209 10.1252C15.4689 7.33992 15.7985 2.28295 14.2388 0Z" fill="#FF7000"/>
<path d="M18.3516 0.316589L16.1367 10.1254L17.4024 10.4418L19.3008 0.633002L18.3516 0.316589Z" fill="#FF7000"/>
<path d="M9.17592 1.58198L12.6565 10.7579L6.64462 3.48045L5.37897 3.79687L11.3908 12.0236L2.84766 6.64458L2.53125 7.91023L11.0744 13.2893L12.6565 10.7579L14.2385 10.4415L10.4416 1.26556L9.17592 1.58198Z" fill="#FF7000"/>
<path d="M22.4649 1.58209L17.7188 10.7581C19.9262 11.0921 23.9609 3.29006 22.4649 1.58209Z" fill="#FF7000"/>
<path d="M19.3008 12.0235C22.1471 11.4234 25.5808 7.06032 27.2111 4.74598C24.5561 4.52354 19.9828 9.59361 19.3008 12.0235Z" fill="#FF7000"/>
<path d="M0.949225 10.7579L0.632812 11.7072C3.30884 13.1116 7.41933 14.4168 10.4416 14.5549C9.62248 12.1993 3.24157 11.2324 0.949225 10.7579Z" fill="#FF7000"/>
<path d="M0 15.188V16.4536H10.1252V15.188H0Z" fill="#FF7000"/>
<path d="M21.1992 16.4535L31.3244 16.1371V15.5043C29.3155 14.9105 21.9548 14.1769 21.1992 16.4535Z" fill="#FF7000"/>
<path d="M20.8828 17.0865C21.7041 19.4466 28.0856 20.4096 30.3752 20.8834L30.6916 20.567V19.9342C27.9983 18.5207 23.9244 17.2191 20.8828 17.0865Z" fill="#FF7000"/>
<path d="M20.5664 18.352L19.9336 19.6176L28.4767 24.9967L28.7932 23.731L20.5664 18.352Z" fill="#FF7000"/>
<path d="M4.42969 26.895L4.7461 27.2114L12.34 20.5667C10.3012 18.6933 5.27948 25.0728 4.42969 26.895Z" fill="#FF7000"/>
<path d="M20.8842 30.3756H22.1499L18.6693 20.5668H18.9858C20.2834 23.0816 23.0513 26.9327 25.6304 28.1607L25.9468 27.8443C24.9234 25.5481 22.4589 22.2579 20.4762 20.6811C19.6309 20.0087 18.0302 20.1605 17.6278 21.3232C16.9133 23.3878 20.2999 28.2401 20.8842 30.3756Z" fill="#FF7000"/>
<path d="M12.3405 20.5668C11.4563 22.6908 7.12852 28.1911 8.85996 30.0592L13.6062 20.8832L12.3405 20.5668Z" fill="#FF7000"/>
<path d="M13.9219 21.1996L12.3398 31.3249C15.2464 30.4747 13.6353 23.7528 15.8204 21.8325C15.8204 23.8575 15.5273 30.6838 17.7189 31.3249C17.7175 29.2881 18.1304 23.315 16.7608 21.778C16.2057 21.155 14.6921 21.2833 13.9219 21.1996Z" fill="#FF7000"/>
</svg>
