<svg width="25" height="25" viewBox="0 0 25 25" fill="none" xmlns="http://www.w3.org/2000/svg">
<mask id="mask0_770_6225" style="mask-type:alpha" maskUnits="userSpaceOnUse" x="0" y="0" width="25" height="25">
<path d="M24.3952 0H0V24.4681H24.3952V0Z" fill="white"/>
</mask>
<g mask="url(#mask0_770_6225)">
<path d="M12.1976 24.4681C18.9343 24.4681 24.3952 18.9909 24.3952 12.234C24.3952 5.47718 18.9343 0 12.1976 0C5.46086 0 0 5.47718 0 12.234C0 18.9909 5.46086 24.4681 12.1976 24.4681Z" fill="#1977F3"/>
<path d="M16.9453 15.7709L17.4857 12.234H14.1033V9.93888C14.1033 8.97239 14.5753 8.02793 16.0915 8.02793H17.6296V5.01713C17.6296 5.01713 16.233 4.77734 14.8986 4.77734C12.1139 4.77734 10.2916 6.47054 10.2916 9.53762V12.234H7.19336V15.7709H10.2916V24.32C10.9124 24.4179 11.5491 24.468 12.198 24.468C12.8457 24.468 13.4824 24.4167 14.1033 24.32V15.7709H16.9453Z" fill="white"/>
</g>
</svg>
