<svg width="24" height="19" viewBox="0 0 24 19" fill="none" xmlns="http://www.w3.org/2000/svg">
<path d="M23.0803 2.22782C22.2313 2.60585 21.3189 2.86033 20.3602 2.97533C21.3384 2.38809 22.0886 1.45585 22.4423 0.347443C21.5275 0.891858 20.5139 1.28703 19.4356 1.49868C18.572 0.577454 17.3413 0 15.98 0C13.3649 0 11.2449 2.1275 11.2449 4.75171C11.2449 5.1224 11.2876 5.4833 11.3669 5.83197C7.43077 5.63377 3.94226 3.7424 1.60642 0.868625C1.20024 1.57208 0.966039 2.38809 0.966039 3.25671C0.966039 4.90463 1.8028 6.35925 3.07257 7.21074C2.29558 7.18505 1.56617 6.97219 0.928238 6.61618V6.67735C0.928238 8.97857 2.55905 10.8981 4.72656 11.3348C4.3277 11.4425 3.91053 11.5 3.47874 11.5C3.1738 11.5 2.87618 11.4706 2.58832 11.4156C3.19088 13.3021 4.9388 14.676 7.01117 14.7127C5.39011 15.9874 3.34822 16.7472 1.1307 16.7472C0.747695 16.7472 0.370806 16.7239 0 16.6811C2.09554 18.0293 4.58385 18.8147 7.25756 18.8147C15.9691 18.8147 20.731 11.5783 20.731 5.30223C20.731 5.09793 20.7261 4.89239 20.7164 4.68809C21.6409 4.01766 22.4448 3.18208 23.0778 2.2315L23.0803 2.22782Z" fill="#1DA1F2"/>
</svg>
